<?xml version="1.0" standalone="no"?>
<!DOCTYPE svg PUBLIC "-//W3C//DTD SVG 20010904//EN"
 "http://www.w3.org/TR/2001/REC-SVG-20010904/DTD/svg10.dtd">
<svg version="1.0" xmlns="http://www.w3.org/2000/svg"
 width="200.000000pt" height="200.000000pt" viewBox="0 0 200.000000 200.000000"
 preserveAspectRatio="xMidYMid meet">

<g transform="translate(0.000000,200.000000) scale(0.100000,-0.100000)"
fill="#000000" stroke="none">
<path d="M323 1753 c-93 -32 -178 -143 -204 -262 -11 -51 -11 -51 -50 -51 -21
0 -39 -4 -39 -10 0 -5 24 -10 54 -10 l53 0 6 48 c13 107 78 206 164 248 l58
29 215 0 215 0 37 -180 c20 -99 39 -194 43 -211 5 -31 4 -33 -81 -75 l-86 -44
-47 53 -48 52 -292 0 c-230 0 -292 -3 -289 -12 4 -10 73 -14 291 -16 l285 -2
41 -49 41 -49 0 -101 0 -101 -275 0 -274 0 -3 108 -3 107 -52 3 c-43 2 -53 0
-53 -12 0 -12 11 -16 40 -16 l40 0 0 -205 0 -205 -40 0 c-22 0 -40 -4 -40 -10
0 -5 25 -10 55 -10 l55 0 0 110 0 110 275 0 275 0 0 -101 0 -100 -42 -50 -43
-49 -288 0 c-227 0 -288 -3 -285 -12 4 -10 73 -13 294 -15 l289 -2 46 53 46
53 82 -44 c48 -27 81 -51 81 -61 0 -8 -19 -103 -42 -209 l-42 -194 -226 3
-227 3 -48 30 c-27 17 -64 50 -82 73 -28 37 -40 67 -71 182 -6 22 -14 25 -55
28 -28 2 -47 -1 -47 -7 0 -6 17 -11 38 -11 l37 0 17 -71 c28 -116 91 -196 186
-236 47 -20 473 -26 492 -7 14 14 104 419 97 437 -2 7 -43 34 -91 60 l-86 48
0 209 0 209 96 51 c83 45 95 55 90 74 -3 11 -23 110 -46 220 -22 109 -43 202
-46 207 -3 5 -105 9 -227 8 -170 0 -232 -4 -264 -16z"/>
<path d="M1190 1760 c0 -6 75 -10 204 -10 235 0 280 -9 351 -72 58 -52 82 -92
104 -180 l19 -73 52 -3 c39 -2 51 0 48 10 -3 7 -23 14 -45 16 -40 3 -41 4 -47
48 -14 105 -88 203 -190 250 -49 23 -60 24 -273 24 -142 0 -223 -4 -223 -10z"/>
<path d="M1127 1492 c-26 -86 -48 -161 -47 -167 0 -5 43 -34 95 -64 l95 -53
-2 -210 -3 -211 -95 -53 c-69 -39 -94 -59 -93 -72 4 -37 84 -388 93 -409 10
-23 11 -23 229 -23 196 0 226 2 274 20 101 38 170 121 200 241 14 54 14 54 56
57 28 2 41 8 41 18 0 12 -11 14 -52 12 l-52 -3 -12 -57 c-27 -116 -86 -198
-174 -237 -41 -19 -65 -21 -267 -21 -123 0 -223 1 -223 3 0 2 -20 93 -44 202
-39 171 -43 200 -30 209 8 6 49 29 90 51 l75 40 47 -53 47 -52 298 0 c234 0
298 3 295 13 -4 9 -74 13 -295 15 l-291 2 -46 50 -46 49 0 96 0 95 285 0 285
0 0 -105 0 -105 55 0 c42 0 55 3 55 15 0 11 -12 15 -45 15 l-45 0 0 200 0 200
45 0 c25 0 45 5 45 10 0 6 -25 10 -55 10 l-55 0 0 -105 0 -105 -285 0 -285 0
0 98 1 97 49 53 49 52 290 0 c252 0 291 2 291 15 0 13 -39 15 -294 15 l-293 0
-51 -54 -52 -55 -81 46 c-44 26 -83 52 -86 59 -2 6 16 77 41 156 51 162 51
158 34 158 -8 0 -33 -64 -61 -158z"/>
</g>
</svg>
